<mxfile host="Electron" modified="2024-06-04T12:02:32.901Z" agent="Mozilla/5.0 (Windows NT 10.0; Win64; x64) AppleWebKit/537.36 (KHTML, like Gecko) draw.io/24.4.13 Chrome/124.0.6367.207 Electron/30.0.6 Safari/537.36" etag="gsrQF0RWE5hlWNk75b0I" version="24.4.13" type="device">
  <diagram name="Page-1" id="malTbP1XmfNXcqbEqKZ_">
    <mxGraphModel dx="2390" dy="1423" grid="1" gridSize="10" guides="1" tooltips="1" connect="1" arrows="1" fold="1" page="1" pageScale="1" pageWidth="1169" pageHeight="827" math="0" shadow="0">
      <root>
        <mxCell id="0" />
        <mxCell id="1" parent="0" />
        <mxCell id="eGnmNRqiCJ5lO6bHO5O7-7" value="" style="edgeStyle=orthogonalEdgeStyle;rounded=0;orthogonalLoop=1;jettySize=auto;html=1;" edge="1" parent="1" source="eGnmNRqiCJ5lO6bHO5O7-2">
          <mxGeometry relative="1" as="geometry">
            <mxPoint x="430.0000000000002" y="290" as="targetPoint" />
          </mxGeometry>
        </mxCell>
        <mxCell id="eGnmNRqiCJ5lO6bHO5O7-26" value="main menu" style="swimlane;whiteSpace=wrap;html=1;" vertex="1" parent="1">
          <mxGeometry x="480" y="480" width="240" height="320" as="geometry" />
        </mxCell>
        <mxCell id="eGnmNRqiCJ5lO6bHO5O7-52" style="edgeStyle=orthogonalEdgeStyle;rounded=0;orthogonalLoop=1;jettySize=auto;html=1;" edge="1" parent="eGnmNRqiCJ5lO6bHO5O7-26" source="eGnmNRqiCJ5lO6bHO5O7-27">
          <mxGeometry relative="1" as="geometry">
            <mxPoint x="279.9999999999998" y="80" as="targetPoint" />
          </mxGeometry>
        </mxCell>
        <mxCell id="eGnmNRqiCJ5lO6bHO5O7-27" value="music view" style="whiteSpace=wrap;html=1;" vertex="1" parent="eGnmNRqiCJ5lO6bHO5O7-26">
          <mxGeometry x="60" y="50" width="120" height="60" as="geometry" />
        </mxCell>
        <mxCell id="eGnmNRqiCJ5lO6bHO5O7-50" style="edgeStyle=orthogonalEdgeStyle;rounded=0;orthogonalLoop=1;jettySize=auto;html=1;exitX=0;exitY=0.5;exitDx=0;exitDy=0;" edge="1" parent="eGnmNRqiCJ5lO6bHO5O7-26" source="eGnmNRqiCJ5lO6bHO5O7-30">
          <mxGeometry relative="1" as="geometry">
            <mxPoint x="-40" y="170" as="targetPoint" />
          </mxGeometry>
        </mxCell>
        <mxCell id="eGnmNRqiCJ5lO6bHO5O7-30" value="charging page" style="whiteSpace=wrap;html=1;" vertex="1" parent="eGnmNRqiCJ5lO6bHO5O7-26">
          <mxGeometry x="60" y="140" width="120" height="60" as="geometry" />
        </mxCell>
        <mxCell id="eGnmNRqiCJ5lO6bHO5O7-51" style="edgeStyle=orthogonalEdgeStyle;rounded=0;orthogonalLoop=1;jettySize=auto;html=1;" edge="1" parent="eGnmNRqiCJ5lO6bHO5O7-26" source="eGnmNRqiCJ5lO6bHO5O7-29">
          <mxGeometry relative="1" as="geometry">
            <mxPoint x="279.9999999999998" y="250" as="targetPoint" />
          </mxGeometry>
        </mxCell>
        <mxCell id="eGnmNRqiCJ5lO6bHO5O7-29" value="settings" style="whiteSpace=wrap;html=1;" vertex="1" parent="eGnmNRqiCJ5lO6bHO5O7-26">
          <mxGeometry x="60" y="220" width="120" height="60" as="geometry" />
        </mxCell>
        <mxCell id="eGnmNRqiCJ5lO6bHO5O7-32" value="settings" style="swimlane;whiteSpace=wrap;html=1;" vertex="1" parent="1">
          <mxGeometry x="760" y="680" width="240" height="320" as="geometry" />
        </mxCell>
        <mxCell id="eGnmNRqiCJ5lO6bHO5O7-44" value="volume slider" style="whiteSpace=wrap;html=1;" vertex="1" parent="eGnmNRqiCJ5lO6bHO5O7-32">
          <mxGeometry x="40" y="60" width="160" height="50" as="geometry" />
        </mxCell>
        <mxCell id="eGnmNRqiCJ5lO6bHO5O7-45" value="brightness slider" style="whiteSpace=wrap;html=1;" vertex="1" parent="eGnmNRqiCJ5lO6bHO5O7-32">
          <mxGeometry x="40" y="140" width="160" height="50" as="geometry" />
        </mxCell>
        <mxCell id="eGnmNRqiCJ5lO6bHO5O7-57" style="edgeStyle=orthogonalEdgeStyle;rounded=0;orthogonalLoop=1;jettySize=auto;html=1;exitX=0;exitY=0.5;exitDx=0;exitDy=0;" edge="1" parent="eGnmNRqiCJ5lO6bHO5O7-32" source="eGnmNRqiCJ5lO6bHO5O7-47">
          <mxGeometry relative="1" as="geometry">
            <mxPoint x="-40.00000000000023" y="244.79310344827582" as="targetPoint" />
          </mxGeometry>
        </mxCell>
        <mxCell id="eGnmNRqiCJ5lO6bHO5O7-47" value="connected devices" style="whiteSpace=wrap;html=1;" vertex="1" parent="eGnmNRqiCJ5lO6bHO5O7-32">
          <mxGeometry x="40" y="220" width="160" height="50" as="geometry" />
        </mxCell>
        <mxCell id="eGnmNRqiCJ5lO6bHO5O7-33" value="charging" style="swimlane;whiteSpace=wrap;html=1;" vertex="1" parent="1">
          <mxGeometry x="200" y="480" width="240" height="320" as="geometry" />
        </mxCell>
        <mxCell id="eGnmNRqiCJ5lO6bHO5O7-36" value="battery or phone picture with changing color and fill to represent charge amount" style="whiteSpace=wrap;html=1;" vertex="1" parent="eGnmNRqiCJ5lO6bHO5O7-33">
          <mxGeometry x="50" y="70" width="140" height="180" as="geometry" />
        </mxCell>
        <mxCell id="eGnmNRqiCJ5lO6bHO5O7-37" value="device name" style="whiteSpace=wrap;html=1;" vertex="1" parent="eGnmNRqiCJ5lO6bHO5O7-33">
          <mxGeometry x="50" y="30" width="140" height="30" as="geometry" />
        </mxCell>
        <mxCell id="eGnmNRqiCJ5lO6bHO5O7-38" value="power draw" style="whiteSpace=wrap;html=1;" vertex="1" parent="eGnmNRqiCJ5lO6bHO5O7-33">
          <mxGeometry x="50" y="260" width="60" height="40" as="geometry" />
        </mxCell>
        <mxCell id="eGnmNRqiCJ5lO6bHO5O7-35" value="phone charge percent" style="whiteSpace=wrap;html=1;" vertex="1" parent="eGnmNRqiCJ5lO6bHO5O7-33">
          <mxGeometry x="130" y="260" width="60" height="40" as="geometry" />
        </mxCell>
        <mxCell id="eGnmNRqiCJ5lO6bHO5O7-34" value="music view" style="swimlane;whiteSpace=wrap;html=1;" vertex="1" parent="1">
          <mxGeometry x="760" y="300" width="240" height="320" as="geometry" />
        </mxCell>
        <mxCell id="eGnmNRqiCJ5lO6bHO5O7-39" value="song cover" style="whiteSpace=wrap;html=1;" vertex="1" parent="eGnmNRqiCJ5lO6bHO5O7-34">
          <mxGeometry x="50" y="50" width="140" height="140" as="geometry" />
        </mxCell>
        <mxCell id="eGnmNRqiCJ5lO6bHO5O7-40" value="name" style="whiteSpace=wrap;html=1;" vertex="1" parent="eGnmNRqiCJ5lO6bHO5O7-34">
          <mxGeometry x="50" y="200" width="140" height="20" as="geometry" />
        </mxCell>
        <mxCell id="eGnmNRqiCJ5lO6bHO5O7-41" value="artist" style="whiteSpace=wrap;html=1;" vertex="1" parent="eGnmNRqiCJ5lO6bHO5O7-34">
          <mxGeometry x="50" y="230" width="140" height="20" as="geometry" />
        </mxCell>
        <mxCell id="eGnmNRqiCJ5lO6bHO5O7-43" value="song duration" style="whiteSpace=wrap;html=1;" vertex="1" parent="eGnmNRqiCJ5lO6bHO5O7-34">
          <mxGeometry x="50" y="260" width="140" height="20" as="geometry" />
        </mxCell>
        <mxCell id="eGnmNRqiCJ5lO6bHO5O7-53" value="Connected Devices" style="swimlane;whiteSpace=wrap;html=1;" vertex="1" parent="1">
          <mxGeometry x="480" y="830" width="240" height="320" as="geometry" />
        </mxCell>
        <mxCell id="eGnmNRqiCJ5lO6bHO5O7-54" value="device connected" style="whiteSpace=wrap;html=1;" vertex="1" parent="eGnmNRqiCJ5lO6bHO5O7-53">
          <mxGeometry x="60" y="50" width="120" height="60" as="geometry" />
        </mxCell>
        <mxCell id="eGnmNRqiCJ5lO6bHO5O7-55" value="unpair with current device" style="whiteSpace=wrap;html=1;" vertex="1" parent="eGnmNRqiCJ5lO6bHO5O7-53">
          <mxGeometry x="60" y="140" width="120" height="60" as="geometry" />
        </mxCell>
        <mxCell id="eGnmNRqiCJ5lO6bHO5O7-56" value="pair new device" style="whiteSpace=wrap;html=1;" vertex="1" parent="eGnmNRqiCJ5lO6bHO5O7-53">
          <mxGeometry x="60" y="230" width="120" height="60" as="geometry" />
        </mxCell>
      </root>
    </mxGraphModel>
  </diagram>
</mxfile>
